<?xml version="1.0" encoding="utf-8"?>
<!-- Generator: Adobe Illustrator 21.0.1, SVG Export Plug-In . SVG Version: 6.00 Build 0)  -->
<svg version="1.1" id="Lager_1" xmlns="http://www.w3.org/2000/svg" xmlns:xlink="http://www.w3.org/1999/xlink" x="0px" y="0px"
	 viewBox="0 0 1366 768" style="enable-background:new 0 0 1366 768;" xml:space="preserve">
<style type="text/css">
	.st0{fill:#FFFFFF;}
</style>
<g>
	<path d="M602.5,571.4c-26.9-1-52.6-4-77.1-13.1c-21.3-7.9-39.5-20.2-52.2-39.5c-13.4-20.3-18.2-42.7-16.1-66.8
		c0.3-3,0.1-6.1-0.1-9.1c-0.2-2.8-1.4-5-3.9-6.9c-1.6-1.2-2.9-3.4-3.4-5.3c-1.6-6.4-3.3-12.8-3.9-19.3c-0.8-8.4-0.7-17-0.9-25.5
		c0-3-0.9-5.1-3.3-7c-6.5-5.2-12.6-10.8-17.4-17.6c-10-13.9-11-28.5-3-43.6c6.4-12.3,16-22,26.8-30.5c18-14.2,38.5-22.3,61.1-25.2
		c16.5-2.2,33-2,49.2,2c9.9,2.4,19.4,6.2,29.1,9.4c14.1,4.7,28.2,9.4,42.8,12.1c22.5,4.1,45.1,8.1,67.6,12.2
		c14,2.5,27.9,5.6,41.9,7.6c9,1.3,18.3,1.2,27.4,1.7c15.3,0.8,30.6,2,45.2,7.2c4,1.4,8,3.2,11.6,5.5c11.3,7,15.2,17.3,11.9,30.1
		c-1.8,6.9-4.9,13.3-8.9,19.2c-3.6,5.3-7.5,10.5-11.4,15.5c-2.1,2.7-3.1,5.5-2.7,9c0.8,7.5,0.6,14.9-1.5,22.2
		c-4.1,14.3-14.3,23.1-29.1,24.9c-2,0.2-4,0.4-6,0.5c-4,0.1-7,1.8-9.1,5.3c-11,18.7-22.7,36.9-35.9,54.2
		c-12.6,16.4-26.5,31.6-43.3,44c-20.4,15-43.2,23.5-68.4,25.8C613.5,570.9,607.5,571.1,602.5,571.4z M610.1,463.9
		c17.1,0.2,34-1.1,50.8-3.8c39.6-6.4,76.5-20.4,111.4-40.1c4.6-2.6,7-6.9,8.6-11.7c0.9-2.7-0.3-4-3-3.2c-2.5,0.8-4.9,1.9-7.3,3.2
		c-37.3,20.3-76.8,34-119.1,39.1c-23.1,2.8-46.2,2.8-69.3,0.2c-28.4-3.3-55.7-10.4-82.2-21.2c-15.1-6.2-29.7-13.5-43.6-22.2
		c-1.9-1.2-3.6-1.1-5.3,0.4c-1.7,1.6-2.2,3.6-1.7,5.9c0.8,3.5,2.9,6.1,5.7,8.2c2.2,1.6,4.4,3,6.7,4.3
		C507.7,449.8,557.2,462.9,610.1,463.9z M625.2,474.2c-0.2,0.7-0.4,1.4-0.6,2.1c-1,4.7-2.1,9.4-2.9,14.1c-2.3,13.6-4.3,27.2-3.4,41
		c0.5,6.8,1.5,7.6,8.3,6.3c0.1,0,0.1,0,0.2-0.1c8.5-1.7,16.3-5.2,23.9-9.2c0.6-0.3,1.2-1.3,1.3-2c0.7-9.6,1.3-19.2,1.8-28.8
		c0.1-2.2,1.1-3.3,3.2-3.4c2.6-0.1,4.5,1.2,6.3,2.9c4.8,4.4,9.6,8.7,14.4,13.1c1.7,1.5,3.7,1.8,5.5,0.6c2.4-1.5,4.7-3.3,6.9-5.2
		c0.7-0.6,1.1-1.9,1.1-2.9c-0.2-4.5-1.9-8.7-4.3-12.4c-4.6-7-9.5-13.7-14.2-20.6c-1.1-1.6-2.5-1.9-4.4-1.5
		C654.1,471.3,640,474.7,625.2,474.2z M467.3,482.2c-0.3,0.1-0.5,0.1-0.8,0.2c-0.1,0.8-0.5,1.5-0.4,2.3c0.3,2.8,0.4,5.7,1.2,8.3
		c3.5,11.5,10,21.4,18,30.2c15,16.5,33.7,27,54.8,33.4c24.1,7.4,48.9,9.3,74,7.6c24-1.6,46.1-9,66.2-22.5
		c15.3-10.3,28.4-22.9,39.3-37.6c12.1-16.2,23.4-33.1,35-49.7c0.4-0.6,0.9-1.3,1-2c0.2-1.1,0.7-2.7,0.1-3.3
		c-0.5-0.6-2.2-0.6-3.2-0.3c-3.6,1.2-6.6,3.2-8.5,6.6c-6.5,11.5-13.5,22.6-21.5,33.1c-14.9,19.7-32.1,37-53.3,50
		c-19.2,11.8-40,18.8-62.7,18.9c-10.2,0.1-20.4-0.7-30.5-1.8c-18.5-2-36.4-6.8-53-15.2c-24.2-12.4-44.3-29-54-55.5
		C468.6,483.9,467.9,483.1,467.3,482.2z M807.8,374.3c-0.2-1.2-0.2-1.9-0.3-2.6c-1.4-7.8-4.3-15.1-8.9-21.6
		c-11.6-16.4-27.9-26-46.7-31.9c-1-0.3-3-0.1-3.4,0.6c-0.6,1-0.7,3-0.1,3.8c1.4,1.9,3.2,3.6,5.3,4.8c20.6,12.3,33.4,30.2,38.5,53.6
		c0.5,2.5,1.6,3.2,4.1,2.5c4.1-1.2,7.5-3.4,10.2-6.7C807.2,376.1,807.5,374.9,807.8,374.3z M535.3,296.3c-3.5-1.6-7.6-2.1-11.6-2.1
		c-16.2,0.1-31.6,4-46.7,9.3c-16.7,5.9-31.2,16.2-46.8,24.1c-1.5,0.8-2.1,2.1-1.6,3.7c0.4,1.5,1.6,2.2,3.2,2.3
		c5.9,0.3,11.4-1.1,16.8-3.3c8.6-3.4,16.2-8.4,23.9-13.4c13.2-8.5,27.3-15,42.8-18.1C521.9,297.6,528.7,297.1,535.3,296.3z
		 M622.7,294.5c-0.2,0.3-0.5,0.7-0.7,1c0.7,0.7,1.2,1.6,2,2c1.5,0.8,3.1,1.4,4.7,1.9c4,1.2,8.2,2,12.1,3.6
		c22.4,9.4,42.2,22.6,59.3,40.1c16.8,17.2,37.6,26.8,61.1,30.8c2.9,0.5,5.8,0.7,8.8,1c0.1-0.3,0.2-0.5,0.2-0.8
		c-2.5-1.2-4.9-2.6-7.5-3.6c-5.7-2.3-11.5-4.2-17.1-6.7c-16.2-7.4-31.4-16.3-45-28c-15.3-13.3-32.5-23.9-51.3-31.6
		C640.6,300.6,631.6,297.7,622.7,294.5z M440.6,310.6c0.3,0.3,0.6,0.5,0.8,0.8c1.7-1,3.5-1.8,5-2.9c8.5-6.3,16.9-12.7,25.5-18.9
		c9.5-6.9,19.4-13.1,30.7-16.5c1.6-0.5,3.3-0.9,5-1.4c-4.1-1-8.1-0.4-12,0.5c-14.5,3.5-27.6,10.1-39.8,18.4
		c-6,4.1-10.5,9.7-13.8,16.3C441.4,308.1,441.1,309.4,440.6,310.6z M699.3,428.4c-1.8-0.4-3.1-0.8-4.4-0.9c-11-1.1-22-1.4-33,0
		c-4.1,0.5-8.1,1.6-12.1,2.6c-1.7,0.4-2.6,1.5-1.7,3.5c0.3,0.6,0.2,1.7-0.2,2.2c-1,1.4-2.4,2.4-3.5,3.8c-0.6,0.8-0.8,2-1.3,3
		c1,0,2,0.1,2.8-0.2c2.3-0.8,4.5-1.9,6.8-2.6c13.3-4.5,27.1-6.6,41-8.3C695.8,431.2,697.5,430.4,699.3,428.4z M454.6,377
		c0.3-2.2,0.7-4.1,0.8-6.1c0.5-10.3,1.6-20.6,4.2-30.6c0.4-1.4,0.2-3.9-0.6-4.3c-1.8-1-2.8,1.1-3.6,2.3c-5.2,7.7-9.1,16-12.1,24.8
		c-0.8,2.5-0.6,5,0.9,7.2C446.6,373.8,450.2,375.6,454.6,377z M578.2,281.4c0.1-0.3,0.1-0.5,0.2-0.8c-0.8-0.4-1.7-0.8-2.5-1.1
		c-11.7-4.9-23.8-8.5-36.1-11.3c-7-1.6-14-0.9-20.6,2.1c-0.9,0.4-1.7,1.1-2.5,1.7c0.1,0.3,0.1,0.6,0.2,0.8
		c6.2,1.2,12.4,2.7,18.6,3.5c10.9,1.4,21.9,2.4,32.8,3.6C571.6,280.3,574.9,280.9,578.2,281.4z M614.4,308.5c-0.1-0.5,0-0.8-0.1-0.9
		c-0.3-0.4-0.6-0.8-1-1.2c-4.6-4.6-10.2-7.3-16.6-8.2c-13-1.9-26.1-1.8-39.1-0.4c-0.4,0-0.7,0.3-1,0.5c0,0.2,0,0.4,0,0.5
		C576.3,299.4,595.1,304.9,614.4,308.5z M801.3,409.9c-0.3,0.2-0.5,0.4-0.8,0.6c0.4,1.4,0.7,2.8,1.1,4.2c0.4,1.6,0.3,2.9-1.3,3.8
		c-4.1,2.4-9.8-0.3-10.5-5c-0.5-2.9,0.1-5.5,2.3-7.7c0.6-0.6,0.3-1.9,0.4-2.9c-1,0.2-2.2,0.1-2.8,0.7c-3.7,3.7-5.3,8.3-4.7,13.5
		c0.4,3.3,2.4,5.6,5.6,6.4c3.3,0.8,6.6,0.5,9.8-0.8c4.5-1.8,6-6.7,3.2-10.8C803.1,411,802.1,410.5,801.3,409.9z M713,382
		c-3.2-2.6-6.9-4-10.8-4.8c-7.5-1.5-15.3-1.6-22.3-5.1c-0.1,0-0.2,0.1-0.6,0.3c1,1.4,1.8,2.8,2.9,3.9c2.8,3,6.3,4.9,10.3,5.6
		C699.3,382.9,706.1,382.9,713,382z M779.8,437.1c2.3-0.8,4.6-1.5,6.8-2.5c1.7-0.8,2.1-2.4,1.4-4.2c-1.1-2.7-5.4-5.9-7.4-5.5
		c-2.3,0.4-4.7,4-4.9,7.5C775.4,435.4,776.7,436.7,779.8,437.1z M705.7,368.1c0.2,2.4,2.4,5.2,4.7,5.5c1.6,0.2,2.8-0.5,3.6-2.3
		C711.2,370.2,708.4,369.1,705.7,368.1z M799.4,407.5c0.4-0.3,0.7-0.5,1.1-0.8c-0.7-1-1.4-2.1-2.2-3.1c-0.2-0.3-1.1-0.4-1.3-0.1
		c-0.3,0.3-0.4,1.1-0.2,1.4C797.6,405.9,798.5,406.7,799.4,407.5z"/>
	<path class="st0" d="M610.1,463.9c-52.8-1.1-102.4-14.1-148.1-40.9c-2.3-1.3-4.6-2.7-6.7-4.3c-2.8-2-5-4.6-5.7-8.2
		c-0.5-2.3,0-4.3,1.7-5.9c1.6-1.5,3.3-1.6,5.3-0.4c13.9,8.7,28.5,16,43.6,22.2c26.4,10.8,53.8,17.9,82.2,21.2
		c23.1,2.7,46.2,2.6,69.3-0.2c42.3-5.1,81.8-18.7,119.1-39.1c2.3-1.3,4.7-2.4,7.3-3.2c2.7-0.8,4,0.5,3,3.2c-1.6,4.8-4,9-8.6,11.7
		c-34.8,19.7-71.8,33.6-111.4,40.1C644.1,462.9,627.1,464.2,610.1,463.9z"/>
	<path class="st0" d="M625.2,474.2c14.8,0.5,28.9-2.9,43.1-5.7c1.9-0.4,3.3-0.1,4.4,1.5c4.8,6.9,9.7,13.6,14.2,20.6
		c2.4,3.7,4.1,7.9,4.3,12.4c0,1-0.4,2.3-1.1,2.9c-2.2,1.9-4.5,3.6-6.9,5.2c-1.8,1.2-3.8,0.9-5.5-0.6c-4.8-4.4-9.7-8.7-14.4-13.1
		c-1.8-1.7-3.7-3-6.3-2.9c-2.2,0.1-3.1,1.2-3.2,3.4c-0.6,9.6-1.1,19.2-1.8,28.8c-0.1,0.7-0.7,1.7-1.3,2c-7.6,3.9-15.4,7.5-23.9,9.2
		c-0.1,0-0.1,0-0.2,0.1c-6.8,1.3-7.8,0.5-8.3-6.3c-1-13.8,1-27.4,3.4-41c0.8-4.7,1.9-9.4,2.9-14.1
		C624.8,475.6,625,474.9,625.2,474.2z"/>
	<path class="st0" d="M467.3,482.2c0.6,0.9,1.3,1.7,1.6,2.7c9.8,26.5,29.8,43.2,54,55.5c16.6,8.5,34.5,13.2,53,15.2
		c10.1,1.1,20.4,1.8,30.5,1.8c22.7-0.1,43.4-7.2,62.7-18.9c21.2-13,38.4-30.3,53.3-50c8-10.5,15-21.6,21.5-33.1
		c1.9-3.4,4.9-5.5,8.5-6.6c1-0.3,2.7-0.3,3.2,0.3c0.5,0.6,0.1,2.2-0.1,3.3c-0.1,0.7-0.6,1.4-1,2c-11.6,16.6-22.9,33.5-35,49.7
		c-10.9,14.7-24.1,27.3-39.3,37.6c-20,13.5-42.1,20.9-66.2,22.5c-25.1,1.7-49.8-0.3-74-7.6c-21.1-6.4-39.9-16.9-54.8-33.4
		c-8-8.9-14.5-18.7-18-30.2c-0.8-2.6-0.9-5.5-1.2-8.3c-0.1-0.7,0.2-1.5,0.4-2.3C466.8,482.3,467.1,482.3,467.3,482.2z"/>
	<path class="st0" d="M807.8,374.3c-0.3,0.6-0.6,1.8-1.3,2.6c-2.7,3.3-6.1,5.6-10.2,6.7c-2.5,0.7-3.6,0-4.1-2.5
		c-5.1-23.4-17.8-41.3-38.5-53.6c-2-1.2-3.8-3-5.3-4.8c-0.6-0.8-0.5-2.8,0.1-3.8c0.4-0.7,2.3-0.9,3.4-0.6
		c18.8,5.9,35.1,15.5,46.7,31.9c4.6,6.5,7.4,13.7,8.9,21.6C807.6,372.4,807.7,373,807.8,374.3z"/>
	<path class="st0" d="M535.3,296.3c-6.6,0.8-13.4,1.2-20,2.6c-15.5,3.1-29.6,9.6-42.8,18.1c-7.7,5-15.4,10-23.9,13.4
		c-5.4,2.1-11,3.5-16.8,3.3c-1.6-0.1-2.8-0.7-3.2-2.3c-0.5-1.6,0.1-3,1.6-3.7c15.6-8,30.1-18.3,46.8-24.1
		c15.1-5.3,30.5-9.2,46.7-9.3C527.7,294.2,531.7,294.7,535.3,296.3z"/>
	<path class="st0" d="M622.7,294.5c8.9,3.2,17.9,6.1,26.6,9.6c18.8,7.7,36,18.3,51.3,31.6c13.6,11.8,28.8,20.7,45,28
		c5.6,2.5,11.4,4.4,17.1,6.7c2.6,1,5,2.4,7.5,3.6c-0.1,0.3-0.2,0.5-0.2,0.8c-2.9-0.3-5.9-0.5-8.8-1c-23.6-3.9-44.4-13.6-61.1-30.8
		c-17.1-17.5-36.9-30.7-59.3-40.1c-3.9-1.6-8.1-2.4-12.1-3.6c-1.6-0.5-3.2-1.1-4.7-1.9c-0.8-0.4-1.3-1.3-2-2
		C622.3,295.2,622.5,294.9,622.7,294.5z"/>
	<path class="st0" d="M440.6,310.6c0.5-1.3,0.8-2.6,1.4-3.8c3.2-6.6,7.7-12.2,13.8-16.3c12.3-8.3,25.3-14.9,39.8-18.4
		c3.9-0.9,7.9-1.5,12-0.5c-1.7,0.5-3.3,0.9-5,1.4c-11.4,3.4-21.3,9.6-30.7,16.5c-8.6,6.2-16.9,12.7-25.5,18.9c-1.5,1.1-3.3,2-5,2.9
		C441.2,311.2,440.9,310.9,440.6,310.6z"/>
	<path class="st0" d="M699.3,428.4c-1.8,2.1-3.5,2.8-5.6,3.1c-13.9,1.7-27.7,3.8-41,8.3c-2.3,0.8-4.5,1.9-6.8,2.6
		c-0.9,0.3-1.9,0.1-2.8,0.2c0.4-1,0.6-2.2,1.3-3c1-1.4,2.4-2.4,3.5-3.8c0.4-0.5,0.5-1.6,0.2-2.2c-0.9-2,0-3.1,1.7-3.5
		c4-1,8-2.1,12.1-2.6c11-1.4,22-1.1,33,0C696.2,427.6,697.5,428,699.3,428.4z"/>
	<path class="st0" d="M454.6,377c-4.4-1.4-8-3.2-10.4-6.7c-1.5-2.2-1.8-4.7-0.9-7.2c3-8.8,6.9-17.1,12.1-24.8
		c0.9-1.3,1.9-3.3,3.6-2.3c0.8,0.5,1,3,0.6,4.3c-2.6,10.1-3.7,20.3-4.2,30.6C455.3,372.9,454.9,374.8,454.6,377z"/>
	<path class="st0" d="M578.2,281.4c-3.3-0.5-6.6-1.1-10-1.5c-10.9-1.2-21.9-2.2-32.8-3.6c-6.2-0.8-12.4-2.3-18.6-3.5
		c-0.1-0.3-0.1-0.6-0.2-0.8c0.8-0.6,1.6-1.3,2.5-1.7c6.6-3,13.6-3.7,20.6-2.1c12.3,2.8,24.4,6.5,36.1,11.3c0.9,0.4,1.7,0.7,2.5,1.1
		C578.3,280.9,578.3,281.2,578.2,281.4z"/>
	<path class="st0" d="M614.4,308.5c-19.3-3.6-38.1-9.1-57.8-9.8c0-0.2,0-0.4,0-0.5c0.3-0.2,0.7-0.4,1-0.5
		c13.1-1.4,26.1-1.4,39.1,0.4c6.3,0.9,12,3.6,16.6,8.2c0.4,0.4,0.7,0.8,1,1.2C614.4,307.8,614.4,308,614.4,308.5z"/>
	<path class="st0" d="M801.3,409.9c0.8,0.7,1.7,1.2,2.3,2c2.8,4,1.3,8.9-3.2,10.8c-3.1,1.3-6.4,1.6-9.8,0.8
		c-3.2-0.8-5.2-3.1-5.6-6.4c-0.6-5.2,1-9.8,4.7-13.5c0.6-0.6,1.9-0.5,2.8-0.7c-0.1,1,0.1,2.4-0.4,2.9c-2.2,2.2-2.8,4.8-2.3,7.7
		c0.7,4.6,6.4,7.3,10.5,5c1.6-0.9,1.7-2.3,1.3-3.8c-0.3-1.4-0.7-2.8-1.1-4.2C800.8,410.3,801.1,410.1,801.3,409.9z"/>
	<path class="st0" d="M713,382c-6.9,0.9-13.7,0.9-20.5-0.2c-4-0.7-7.6-2.5-10.3-5.6c-1.1-1.2-1.9-2.6-2.9-3.9
		c0.4-0.2,0.5-0.3,0.6-0.3c7,3.5,14.8,3.6,22.3,5.1C706.1,378,709.8,379.4,713,382z"/>
	<path class="st0" d="M779.8,437.1c-3.1-0.4-4.4-1.7-4.2-4.6c0.2-3.5,2.6-7.1,4.9-7.5c2-0.3,6.3,2.8,7.4,5.5
		c0.7,1.8,0.4,3.4-1.4,4.2C784.4,435.7,782,436.3,779.8,437.1z"/>
	<path class="st0" d="M705.7,368.1c2.7,1,5.4,2.1,8.3,3.2c-0.8,1.8-2,2.5-3.6,2.3C708.1,373.2,705.9,370.5,705.7,368.1z"/>
	<path class="st0" d="M799.4,407.5c-0.9-0.9-1.9-1.7-2.7-2.6c-0.2-0.2-0.1-1.1,0.2-1.4c0.2-0.2,1.1-0.1,1.3,0.1
		c0.8,0.9,1.5,2,2.2,3.1C800.1,407,799.8,407.3,799.4,407.5z"/>
</g>
</svg>
